<svg xmlns="http://www.w3.org/2000/svg" viewBox="0 0 64 64">
  <!-- Them: back bubble (orange) -->
  <path fill="#ffb454" d="M8 6h34a6 6 0 0 1 6 6v20a6 6 0 0 1-6 6H26l-9 8v-8H8a6 6 0 0 1-6-6V12a6 6 0 0 1 6-6z"/>
  <!-- You: front bubble (blue), overlapping -->
  <path fill="#4aa3ff" d="M28 26h28a6 6 0 0 1 6 6v14a6 6 0 0 1-6 6h-4v8l-9-8H28a6 6 0 0 1-6-6V32a6 6 0 0 1 6-6z"/>
  <!-- talk dots -->
  <circle cx="35" cy="39" r="2.6" fill="#0f1115"/>
  <circle cx="42" cy="39" r="2.6" fill="#0f1115"/>
  <circle cx="49" cy="39" r="2.6" fill="#0f1115"/>
</svg>
